<svg width="60" height="60" viewBox="0 0 60 60" fill="none" xmlns="http://www.w3.org/2000/svg">
<circle cx="30" cy="30" r="29.5" stroke="#F9F2F7"/>
<path fill-rule="evenodd" clip-rule="evenodd" d="M31.3787 16.1943C31.0166 15.3309 31.8796 15.1637 32.3343 15.1637V15H28.6784V15.1649C29.2627 15.1649 29.6711 15.4134 30.0887 16.3099L23.8414 32.6015L16.9415 16.1943C16.5794 15.3309 17.4425 15.1637 17.8971 15.1637V15H14.2401V15.1649C14.8255 15.1649 15.2339 15.4134 15.6504 16.3099L11.0667 28.2515C10.1481 30.6309 10 32.2008 10 33.1008C10 37.4267 13.7854 40.7141 18.5184 40.7141H20.3833L21.2927 38.7023H21.1249C20.1508 40.5137 18.5681 40.5114 18.0799 40.5114H18.0545C14.5745 40.5114 10.1666 37.7931 10.1666 33.063C10.1666 32.1996 10.3158 30.6756 11.2344 28.2882L15.7348 16.5607L25.4587 39.6492C25.8208 40.5126 24.8004 40.5492 24.6697 40.5492V40.7141H28.0849V40.5492H28.0479C27.8478 40.5607 27.1929 40.5973 26.7984 39.6481L23.9409 32.8248L30.1755 16.5653L35.9959 30.3893V43.8057C35.9959 44.8363 35.0403 44.8363 34.8737 44.8363V45H43.2336C47.5142 45 51 41.6302 51 37.4691C51 33.2725 47.5119 29.9382 43.2336 29.9382H42.9374C44.1418 29.6661 45.2171 28.9974 45.9874 28.0416C46.7577 27.0857 47.1773 25.8994 47.1775 24.6767C47.1775 21.7099 44.6913 19.2859 41.6105 19.2859H34.8737V19.4508C35.0403 19.4508 35.9959 19.4874 35.9959 20.5168V27.1855L31.3787 16.1943ZM41.6105 29.9347C44.1429 29.9347 46.1386 27.5473 46.1386 24.6733C46.1386 21.7992 44.1059 19.4508 41.5734 19.4508H38.326C38.0379 19.4508 37.2489 19.5653 37.2489 20.5168V29.9382L41.6105 29.9347ZM37.2489 43.8023C37.2489 44.7481 38.1212 44.8328 38.3722 44.8328H43.1503C46.6859 44.8328 49.5527 41.4985 49.5527 37.4668C49.5527 33.3985 46.6859 30.1019 43.1503 30.1019H37.25L37.2489 43.8023Z" fill="#F9F2F7"/>
</svg>
