{
	"nodes":[{
		"rotation":[0.0,
		0.0,
		0.0,
		-1.0],
		"name":"S Curve",
		"translation":[9.821444320611825e-31,
		-1495.0,
		4.733165431326071e-30],
		"scale":[1.0,
		1.0,
		1.0],
		"children":[1]
	},
	{
		"rotation":[0.0,
		-0.7071067690849304,
		0.0,
		0.7071067690849304],
		"name":"Connect",
		"translation":[0.0,
		0.0,
		0.0],
		"scale":[1.0,
		1.0,
		1.0],
		"mesh":0
	},
	{
		"rotation":[0.0,
		0.0,
		0.0,
		-1.0],
		"name":"Diamond",
		"translation":[0.0,
		45.0,
		-600.0],
		"scale":[1.0,
		1.0,
		1.0],
		"children":[3]
	},
	{
		"rotation":[0.0,
		0.0,
		0.0,
		-1.0],
		"name":"Diamond",
		"translation":[0.0,
		-22.5,
		0.0],
		"scale":[1.0,
		1.0,
		1.0],
		"mesh":1
	}],
	"asset":{
		"version":"2.0",
		"generator":"Created using the official Cinema 4D glTF Exporter 1.000x284978"
	},
	"scenes":[{
		"nodes":[0,
		2]
	}],
	"meshes":[{
		"name":"Connect",
		"primitives":[{
			"material":0,
			"attributes":{
				"POSITION":1,
				"NORMAL":2,
				"TEXCOORD_0":3
			},
			"indices":0
		}]
	},
	{
		"name":"Diamond",
		"primitives":[{
			"material":1,
			"attributes":{
				"POSITION":7,
				"NORMAL":8,
				"TEXCOORD_0":9
			},
			"indices":6
		}]
	}],
	"accessors":[{
		"bufferView":0,
		"type":"SCALAR",
		"componentType":5123,
		"count":174,
		"byteOffset":0,
		"min":[0],
		"max":[66]
	},
	{
		"bufferView":1,
		"type":"VEC3",
		"componentType":5126,
		"count":67,
		"byteOffset":0,
		"min":[-801.0,
		-300.0,
		-883.37939453125],
		"max":[801.0,
		4000.0,
		883.37939453125]
	},
	{
		"bufferView":1,
		"type":"VEC3",
		"componentType":5126,
		"count":67,
		"byteOffset":12,
		"min":[0.0,
		0.0,
		0.0],
		"max":[1.0,
		1.0,
		0.0]
	},
	{
		"bufferView":1,
		"type":"VEC2",
		"componentType":5126,
		"count":67,
		"byteOffset":24,
		"min":[0.0,
		0.0],
		"max":[1.0,
		1.0]
	},
	{
		"bufferView":2,
		"type":"SCALAR",
		"componentType":5126,
		"count":72,
		"byteOffset":0,
		"min":[0.0],
		"max":[2.9583332538604738]
	},
	{
		"bufferView":2,
		"type":"VEC4",
		"componentType":5126,
		"count":72,
		"byteOffset":288,
		"min":[0.0,
		-0.7071067690849304,
		0.0,
		-1.0],
		"max":[0.0,
		0.0,
		0.0,
		-0.7071067690849304]
	},
	{
		"bufferView":3,
		"type":"SCALAR",
		"componentType":5123,
		"count":2100,
		"byteOffset":0,
		"min":[0],
		"max":[2011]
	},
	{
		"bufferView":4,
		"type":"VEC3",
		"componentType":5126,
		"count":2012,
		"byteOffset":0,
		"min":[-49.98463439941406,
		-10.66196060180664,
		-49.98463439941406],
		"max":[49.98463439941406,
		53.635154724121097,
		49.98463439941406]
	},
	{
		"bufferView":4,
		"type":"VEC3",
		"componentType":5126,
		"count":2012,
		"byteOffset":12,
		"min":[-1.0000001192092896,
		-0.9999997019767761,
		-1.0000001192092896],
		"max":[1.0000001192092896,
		1.0,
		1.0000001192092896]
	},
	{
		"bufferView":4,
		"type":"VEC2",
		"componentType":5126,
		"count":2012,
		"byteOffset":24,
		"min":[-0.001036918954923749,
		-0.004780459217727184],
		"max":[1.0005269050598145,
		1.002511978149414]
	}],
	"bufferViews":[{
		"buffer":0,
		"byteOffset":0,
		"byteLength":348,
		"target":34963
	},
	{
		"buffer":0,
		"byteOffset":348,
		"byteLength":2144,
		"target":34962,
		"byteStride":32
	},
	{
		"buffer":1,
		"byteOffset":0,
		"byteLength":1440
	},
	{
		"buffer":2,
		"byteOffset":0,
		"byteLength":4200,
		"target":34963
	},
	{
		"buffer":2,
		"byteOffset":4200,
		"byteLength":64384,
		"target":34962,
		"byteStride":32
	}],
	"buffers":[{
		"uri":"data:application/octet-stream;base64,",
		"byteLength":2492
	},
	{
		"uri":"data:application/octet-stream;base64,",
		"byteLength":1440
	},
	{
		"uri":"data:application/octet-stream;base64,",
		"byteLength":68584
	}],
	"materials":[{
		"pbrMetallicRoughness":{
			"baseColorFactor":[1.0,
			1.0,
			1.0,
			1.0],
			"metallicFactor":1.0,
			"roughnessFactor":1.0
		},
		"emissiveFactor":[0.0,
		0.0,
		0.0],
		"alphaMode":"OPAQUE",
		"doubleSided":false,
		"name":""
	},
	{
		"pbrMetallicRoughness":{
			"baseColorFactor":[1.0,
			1.0,
			1.0,
			1.0],
			"metallicFactor":1.0,
			"roughnessFactor":1.0
		},
		"emissiveFactor":[0.0,
		0.0,
		0.0],
		"alphaMode":"OPAQUE",
		"doubleSided":false,
		"name":""
	}],
	"animations":[{
		"samplers":[{
			"input":4,
			"interpolation":"LINEAR",
			"output":5
		}],
		"channels":[{
			"sampler":0,
			"target":{
				"node":2,
				"path":"rotation"
			}
		}]
	}]
}